<!DOCTYPE svg PUBLIC "-//W3C//DTD SVG 1.1//EN" "http://www.w3.org/Graphics/SVG/1.1/DTD/svg11.dtd">
<!-- Uploaded to: SVG Repo, www.svgrepo.com, Transformed by: SVG Repo Mixer Tools -->
<svg fill="#ffffff" height="800px" width="800px" version="1.1" id="Layer_1" xmlns="http://www.w3.org/2000/svg" xmlns:xlink="http://www.w3.org/1999/xlink" viewBox="-51.2 -51.2 614.42 614.42" xml:space="preserve" transform="matrix(1, 0, 0, 1, 0, 0)rotate(90)" stroke="#ffffff" stroke-width="0.00512016">
<g id="SVGRepo_bgCarrier" stroke-width="0"/>
<g id="SVGRepo_tracerCarrier" stroke-linecap="round" stroke-linejoin="round"/>
<g id="SVGRepo_iconCarrier"> <g> <g> <path d="M271.094,368.925L158.176,256.007L271.093,143.09c6.101-6.101,7.936-15.275,4.629-23.253 c-3.307-7.979-11.093-13.163-19.712-13.163H147.872c-5.717,0-11.179,2.283-15.168,6.336l-126.528,128 c-8.235,8.32-8.235,21.675,0,29.995l126.528,128c3.989,4.053,9.451,6.336,15.168,6.336h108.139 c8.619,0,16.405-5.184,19.712-13.163S277.195,375.026,271.094,368.925z"/> </g> </g> <g> <g> <path d="M505.761,368.925L392.843,256.007L505.76,143.09c6.101-6.101,7.936-15.275,4.629-23.253 c-3.307-7.979-11.093-13.163-19.712-13.163H382.539c-5.717,0-11.179,2.283-15.168,6.336l-126.528,128 c-8.235,8.32-8.235,21.675,0,29.995l126.528,128c3.989,4.053,9.451,6.336,15.168,6.336h108.139 c8.619,0,16.405-5.184,19.712-13.163S511.862,375.026,505.761,368.925z"/> </g> </g> </g>
</svg>